<?xml version="1.0" encoding="UTF-8" standalone="no"?>
<!-- Created with Inkscape (http://www.inkscape.org/) -->

<svg
   xmlns:dc="http://purl.org/dc/elements/1.1/"
   xmlns:cc="http://creativecommons.org/ns#"
   xmlns:rdf="http://www.w3.org/1999/02/22-rdf-syntax-ns#"
   xmlns:svg="http://www.w3.org/2000/svg"
   xmlns="http://www.w3.org/2000/svg"
   xmlns:xlink="http://www.w3.org/1999/xlink"
   xmlns:sodipodi="http://sodipodi.sourceforge.net/DTD/sodipodi-0.dtd"
   xmlns:inkscape="http://www.inkscape.org/namespaces/inkscape"
   width="512"
   height="512"
   id="svg2"
   version="1.1"
   inkscape:version="0.48.0 r9654"
   sodipodi:docname="ircumflex.svg"
   inkscape:export-filename="ircumflex.png"
   inkscape:export-xdpi="90"
   inkscape:export-ydpi="90">
  <defs
     id="defs4">
    <linearGradient
       id="linearGradient2995">
      <stop
         style="stop-color:#4dee2d;stop-opacity:1;"
         offset="0"
         id="stop2997" />
      <stop
         style="stop-color:#1fa604;stop-opacity:1;"
         offset="1"
         id="stop2999" />
    </linearGradient>
    <linearGradient
       inkscape:collect="always"
       xlink:href="#linearGradient2995"
       id="linearGradient3789"
       gradientUnits="userSpaceOnUse"
       gradientTransform="matrix(5.5800556,0,0,6.2413957,-126.289,-108.28957)"
       x1="65.457413"
       y1="109.97649"
       x2="65.457413"
       y2="178.61647" />
    <filter
       inkscape:collect="always"
       id="filter3936">
      <feGaussianBlur
         inkscape:collect="always"
         stdDeviation="10.639286"
         id="feGaussianBlur3938" />
    </filter>
  </defs>
  <sodipodi:namedview
     id="base"
     pagecolor="#ffffff"
     bordercolor="#666666"
     borderopacity="1.0"
     inkscape:pageopacity="0.0"
     inkscape:pageshadow="2"
     inkscape:zoom="0.45703125"
     inkscape:cx="299.91719"
     inkscape:cy="220.31655"
     inkscape:document-units="px"
     inkscape:current-layer="layer1"
     showgrid="false"
     showguides="true"
     inkscape:guide-bbox="true"
     inkscape:window-width="1024"
     inkscape:window-height="691"
     inkscape:window-x="0"
     inkscape:window-y="280"
     inkscape:window-maximized="1" />
  <metadata
     id="metadata7">
    <rdf:RDF>
      <cc:Work
         rdf:about="">
        <dc:format>image/svg+xml</dc:format>
        <dc:type
           rdf:resource="http://purl.org/dc/dcmitype/StillImage" />
        <dc:title></dc:title>
      </cc:Work>
    </rdf:RDF>
  </metadata>
  <g
     inkscape:label="Layer 1"
     inkscape:groupmode="layer"
     id="layer1"
     transform="translate(0,-540.36218)">
    <rect
       ry="56.496838"
       y="587.57648"
       x="46.357143"
       height="425.57144"
       width="425.57144"
       id="rect3836"
       style="fill:#000000;fill-opacity:1;stroke:#000000;stroke-width:15;stroke-miterlimit:4;stroke-opacity:1;stroke-dasharray:none;stroke-dashoffset:0;filter:url(#filter3936)" />
    <path
       style="fill:url(#linearGradient3789);fill-opacity:1.0;stroke:#000000;stroke-width:15;stroke-miterlimit:4;stroke-dashoffset:0;stroke-opacity:1"
       d="m 90.853981,577.57648 312.577769,0 c 31.29925,0 56.49684,25.19759 56.49684,56.49683 l 0,312.57777 c 0,31.29925 -25.19759,56.49682 -56.49684,56.49682 l -312.577769,0 c -31.299248,0 -56.496838,-25.19757 -56.496838,-56.49682 l 0,-312.57777 c 0,-31.29924 25.19759,-56.49683 56.496838,-56.49683 z"
       id="rect2993" />
    <g
       transform="matrix(16.693341,0,0,16.693341,-1945.9893,-3335.1945)"
       style="font-size:8.98561859px;font-style:normal;font-variant:normal;font-weight:normal;font-stretch:normal;line-height:125%;letter-spacing:0px;word-spacing:0px;fill:#000000;fill-opacity:1;stroke:none;font-family:Courier New;-inkscape-font-specification:Courier New"
       id="flowRoot3787">
      <path
         d="m 123.70611,244.34522 0,0.95209 -1.07056,0 0,-0.95209 1.07056,0 m 0.12285,1.70674 0,3.08442 1.07932,0 c 0.21645,0 0.37001,0.0424 0.46069,0.12724 0.0936,0.0819 0.1404,0.19012 0.1404,0.32467 0,0.13163 -0.0468,0.23985 -0.1404,0.32468 -0.0907,0.0819 -0.24424,0.12285 -0.46069,0.12285 l -3.05809,0 c -0.21645,0 -0.37148,-0.041 -0.46508,-0.12285 -0.0907,-0.0848 -0.13601,-0.19451 -0.13601,-0.32906 0,-0.13163 0.0453,-0.23839 0.13601,-0.32029 0.0936,-0.0848 0.24863,-0.12724 0.46508,-0.12724 l 1.07933,0 0,-2.18498 -0.72394,0 c -0.21353,0 -0.36709,-0.041 -0.46069,-0.12285 -0.0936,-0.0848 -0.1404,-0.19451 -0.1404,-0.32906 0,-0.13163 0.0453,-0.23839 0.13601,-0.32029 0.0936,-0.0848 0.24863,-0.12724 0.46508,-0.12724 l 1.62338,0"
         style="font-weight:bold;font-family:Courier New;-inkscape-font-specification:Courier New Bold"
         id="path2995" />
      <path
         d="m 128.58502,246.05196 0,0.5616 c 0.37732,-0.27202 0.67421,-0.45337 0.89066,-0.54405 0.21937,-0.0907 0.42412,-0.13601 0.61425,-0.13601 0.2925,0 0.57622,0.10823 0.85118,0.32467 0.18719,0.14626 0.28079,0.29543 0.2808,0.44753 -1e-5,0.1287 -0.0453,0.23839 -0.13601,0.32906 -0.0878,0.0878 -0.19452,0.13163 -0.32029,0.13163 -0.11116,0 -0.22816,-0.0556 -0.351,-0.16673 -0.12286,-0.11114 -0.23254,-0.16672 -0.32907,-0.16672 -0.12577,0 -0.31444,0.079 -0.56598,0.23692 -0.24863,0.15796 -0.56015,0.39488 -0.93454,0.71078 l 0,1.35574 1.28115,0 c 0.21645,0 0.37001,0.0424 0.46069,0.12724 0.0936,0.0819 0.14039,0.19012 0.1404,0.32467 -1e-5,0.13163 -0.0468,0.23985 -0.1404,0.32468 -0.0907,0.0819 -0.24424,0.12285 -0.46069,0.12285 l -2.71587,0 c -0.21645,0 -0.37148,-0.041 -0.46507,-0.12285 -0.0907,-0.0848 -0.13602,-0.19451 -0.13602,-0.32906 0,-0.13163 0.0453,-0.23839 0.13602,-0.32029 0.0936,-0.0848 0.24862,-0.12724 0.46507,-0.12724 l 0.53528,0 0,-2.18498 -0.32468,0 c -0.21645,0 -0.37148,-0.041 -0.46507,-0.12285 -0.0907,-0.0848 -0.13602,-0.19451 -0.13602,-0.32906 0,-0.13163 0.0453,-0.23839 0.13602,-0.32029 0.0936,-0.0848 0.24862,-0.12724 0.46507,-0.12724 l 1.22412,0"
         style="font-weight:bold;font-family:Courier New;-inkscape-font-specification:Courier New Bold"
         id="path2997" />
      <path
         d="m 135.56116,246.2143 c 0.10822,-0.10237 0.21937,-0.15356 0.33345,-0.15356 0.12869,0 0.23399,0.0468 0.3159,0.1404 0.0848,0.0907 0.12723,0.24277 0.12724,0.4563 l 0,0.57915 c -1e-5,0.21645 -0.0424,0.37001 -0.12724,0.46069 -0.0819,0.0907 -0.19013,0.13601 -0.32468,0.13601 -0.12285,0 -0.22669,-0.0351 -0.31151,-0.1053 -0.0614,-0.0526 -0.10969,-0.15941 -0.14479,-0.32029 -0.0351,-0.1638 -0.11993,-0.28518 -0.25447,-0.36416 -0.23693,-0.1404 -0.53967,-0.2106 -0.90822,-0.2106 -0.42413,0 -0.76489,0.12431 -1.02229,0.37294 -0.25448,0.24862 -0.38171,0.56306 -0.38171,0.94331 0,0.351 0.12285,0.62888 0.36855,0.83363 0.2457,0.20182 0.65374,0.30274 1.22411,0.30273 0.3744,1e-5 0.68006,-0.038 0.91699,-0.11407 0.1404,-0.0468 0.27349,-0.12577 0.39927,-0.23693 0.12577,-0.11407 0.23984,-0.17111 0.34222,-0.17111 0.12285,0 0.22815,0.0453 0.3159,0.13601 0.0907,0.0907 0.13601,0.19744 0.13602,0.32029 -1e-5,0.1989 -0.13602,0.38757 -0.40804,0.56599 -0.40366,0.26618 -0.99451,0.39926 -1.77256,0.39926 -0.69908,0 -1.24313,-0.14478 -1.63215,-0.43436 -0.5265,-0.38902 -0.78975,-0.92137 -0.78975,-1.59705 0,-0.64058 0.21352,-1.17 0.64057,-1.58828 0.42705,-0.4212 0.98427,-0.6318 1.67165,-0.6318 0.24862,0 0.47969,0.0234 0.69322,0.0702 0.21352,0.0468 0.41096,0.117 0.59232,0.2106"
         style="font-weight:bold;font-family:Courier New;-inkscape-font-specification:Courier New Bold"
         id="path2999" />
      <path
         d="m 139.53624,245.5123 -1.05739,1.27237 c -0.0965,0.11701 -0.17404,0.19306 -0.23254,0.22816 -0.0585,0.0351 -0.12724,0.0526 -0.20621,0.0526 -0.12578,0 -0.234,-0.0439 -0.32468,-0.13163 -0.0877,-0.0907 -0.13162,-0.20036 -0.13162,-0.32906 0,-0.10237 0.0658,-0.234 0.19744,-0.39488 l 1.755,-2.11917 1.76817,2.11917 c 0.0848,0.10238 0.13893,0.17989 0.16233,0.23254 0.0263,0.0526 0.0395,0.10823 0.0395,0.16672 0,0.12578 -0.0453,0.23401 -0.13601,0.32468 -0.0878,0.0877 -0.19306,0.13163 -0.3159,0.13163 -0.0819,0 -0.15211,-0.0175 -0.2106,-0.0526 -0.0585,-0.0351 -0.13602,-0.10969 -0.23254,-0.22377 l -1.07494,-1.27676"
         style="font-weight:bold;font-family:Courier New;-inkscape-font-specification:Courier New Bold"
         id="path3001" />
    </g>
  </g>
</svg>
